<svg width="72" height="68" viewBox="0 0 72 68" fill="none" xmlns="http://www.w3.org/2000/svg">
<ellipse cx="35.9333" cy="34.2267" rx="35.9333" ry="33.66" fill="url(#paint0_linear_595_2)"/>
<path d="M54.7804 16.5722C53.9604 15.8038 52.5646 15.7501 50.8495 16.4207C49.5552 16.927 48.1544 17.8093 46.8448 18.936C46.7743 18.8699 46.705 18.803 46.6336 18.7382C46.4757 18.5941 46.2664 18.5133 46.0452 18.5157L34.1167 18.7514C33.9093 18.7555 33.7113 18.8347 33.5643 18.9721L29.4374 22.838C29.1231 23.1326 29.1231 23.6104 29.4374 23.9048C29.7519 24.1995 30.2617 24.1995 30.5762 23.9048L34.4745 20.2535L45.678 20.0319C44.696 21.038 43.8911 22.0998 43.3381 23.1168C42.1908 23.1144 41.0425 23.5221 40.169 24.3403C39.3252 25.1307 38.8603 26.182 38.8603 27.2999C38.8603 28.4178 39.3249 29.4688 40.169 30.2592C41.0127 31.0499 42.135 31.4851 43.3284 31.4851C44.5218 31.4851 45.6438 31.0499 46.4879 30.2592C47.3316 29.4688 47.7963 28.4178 47.7963 27.2999C47.7963 27.1135 47.7822 26.9292 47.7568 26.7479C47.7565 26.7452 47.7562 26.7426 47.7559 26.7399C47.6274 25.8342 47.1891 24.9972 46.4879 24.3403C46.0474 23.928 45.5373 23.6201 44.9931 23.4161C45.4618 22.6434 46.0941 21.843 46.846 21.0708L51.0883 25.0447L50.8508 35.5937L32.6939 52.6016L16.3176 37.2613L25.9925 28.1986C26.307 27.9039 26.307 27.4264 25.9925 27.1317C25.6779 26.8371 25.1684 26.8371 24.8536 27.1317L14.6095 36.7281C14.4584 36.8695 14.3735 37.0612 14.3735 37.2613C14.3735 37.4615 14.4584 37.6531 14.6095 37.7946L32.1246 54.2017C32.2819 54.349 32.4878 54.4227 32.6939 54.4227C32.9001 54.4227 33.1063 54.349 33.2635 54.2017L52.2184 36.446C52.365 36.3084 52.4496 36.1229 52.454 35.9283L52.7059 24.7545C52.7103 24.549 52.6251 24.3506 52.47 24.2053L52.2569 24.0058C53.4597 22.779 54.4016 21.4668 54.942 20.2543C55.658 18.6481 55.6006 17.3403 54.7804 16.5722ZM43.3281 29.9766C42.5649 29.9766 41.8474 29.698 41.3076 29.1923C40.768 28.687 40.4707 28.0146 40.4707 27.2996C40.4707 26.5847 40.7677 25.9126 41.3076 25.4069C41.6995 25.0397 42.1779 24.8026 42.6818 24.6937C42.3612 25.8688 42.5289 26.8242 43.1824 27.4364C43.6226 27.8487 44.2258 28.0554 44.9548 28.0554C45.3117 28.0554 45.6993 28.0043 46.1119 27.9054C45.9932 28.3888 45.7325 28.8328 45.349 29.1923C44.8092 29.698 44.0917 29.9766 43.3281 29.9766ZM46.007 26.3648C45.0799 26.6478 44.5262 26.5618 44.3213 26.3695C44.0638 26.1283 44.0726 25.5325 44.3267 24.7926C44.6998 24.9223 45.0495 25.1266 45.349 25.4069C45.6438 25.6831 45.8656 26.0094 46.007 26.3648ZM53.4557 19.6732C52.992 20.7134 52.1723 21.8536 51.1168 22.9377L47.9849 20.0037C49.1423 19.0149 50.3592 18.2471 51.4699 17.8128C52.4803 17.4177 53.3329 17.3494 53.6415 17.6387C53.9507 17.9281 53.8777 18.7267 53.4557 19.6732Z" fill="white"/>
<path d="M27.4064 36.6524C26.5745 37.4316 26.1165 38.4674 26.1165 39.5694C26.1165 40.3483 26.3464 41.0935 26.7744 41.7392L25.9786 42.4847C25.664 42.7793 25.664 43.2569 25.9786 43.5515C26.1359 43.6989 26.342 43.7725 26.5479 43.7725C26.7541 43.7725 26.9602 43.6989 27.1175 43.5515L27.8604 42.8556C28.623 43.3966 29.5592 43.6944 30.5226 43.6944C30.5918 43.6944 30.6617 43.693 30.7313 43.6898C31.9663 43.6346 33.0752 43.0643 33.7732 42.1257C34.4456 41.2218 34.6279 40.1012 34.2736 39.0514C34.1072 38.5586 33.8302 38.0799 33.448 37.6215L36.7224 34.5539C36.8772 34.8823 36.9593 35.2401 36.9593 35.6099C36.9593 36.3087 36.6689 36.9658 36.1412 37.4601C35.8267 37.7545 35.8267 38.2323 36.1412 38.5269C36.4555 38.8213 36.9653 38.8216 37.2801 38.5269C38.1117 37.7477 38.5697 36.7117 38.5697 35.6099C38.5697 34.831 38.3401 34.0855 37.9121 33.4398L38.7079 32.6944C39.0222 32.4 39.0222 31.9222 38.7079 31.6275C38.3933 31.3331 37.8836 31.3331 37.569 31.6275L36.8258 32.3237C36.0078 31.7437 34.9904 31.4423 33.9549 31.4893C32.7199 31.5445 31.611 32.1147 30.913 33.0533C30.2406 33.9576 30.0586 35.0781 30.4126 36.1276C30.579 36.6204 30.8563 37.0991 31.2385 37.5575L27.9638 40.6251C27.809 40.2967 27.7269 39.9389 27.7269 39.5691C27.7269 38.8703 28.0176 38.2132 28.5453 37.7192C28.8595 37.4246 28.8595 36.9471 28.5453 36.6524C28.2307 36.3577 27.7209 36.3577 27.4064 36.6524ZM32.738 39.5063C32.9404 40.1062 32.8364 40.7466 32.452 41.2635C32.0415 41.8152 31.3867 42.1501 30.6545 42.183C30.0724 42.2094 29.4996 42.0626 29.0159 41.7732L32.2966 38.7001C32.498 38.9669 32.6469 39.2366 32.738 39.5063ZM31.9482 35.6727C31.7458 35.0731 31.8501 34.4327 32.2345 33.9156C32.6447 33.3641 33.2998 33.0289 34.0317 32.9964C34.6132 32.9702 35.1863 33.1167 35.6703 33.4061L32.3896 36.4792C32.1882 36.2122 32.0393 35.9427 31.9482 35.6727Z" fill="white"/>
<path d="M26.9717 25.8059C27.1014 26.0997 27.427 26.2911 27.7657 26.2705C28.0881 26.2511 28.3735 26.0463 28.4775 25.7598C28.5847 25.4655 28.4822 25.1324 28.2259 24.9348C27.959 24.7291 27.5695 24.708 27.2791 24.8835C26.957 25.0783 26.8251 25.4737 26.9717 25.8059Z" fill="white"/>
<defs>
<linearGradient id="paint0_linear_595_2" x1="14.8867" y1="8.26037" x2="53.5764" y2="62.1555" gradientUnits="userSpaceOnUse">
<stop stop-color="#FD8499"/>
<stop offset="1" stop-color="#FE516F"/>
</linearGradient>
</defs>
</svg>
