<svg width="72" height="68" viewBox="0 0 72 68" fill="none" xmlns="http://www.w3.org/2000/svg">
<ellipse cx="35.9333" cy="33.9862" rx="35.9333" ry="33.66" fill="url(#paint0_linear_595_3)"/>
<path d="M28.0076 24.9702C28.4504 24.9702 28.8097 24.6336 28.8097 24.2189C28.8097 23.7971 28.4416 23.4675 28.0076 23.4675C27.5649 23.4675 27.2056 23.8042 27.2056 24.2189C27.2056 24.6303 27.5615 24.9702 28.0076 24.9702Z" fill="white"/>
<path d="M20.0974 30.899L20.9085 32.1314L20.4335 33.5143C19.8655 35.1687 20.5824 36.9411 22.1752 37.8243L23.4893 38.5545L23.7478 39.9776C23.9715 41.207 24.8184 42.2134 25.9726 42.7115L22.3786 48.3263C22.0308 48.8701 22.5168 49.551 23.1873 49.4553L27.6304 48.8217L29.2655 52.7428C29.5084 53.325 30.3609 53.3908 30.7021 52.8534L35.7389 44.9206L36.0181 44.8056H36.0425L36.3145 44.9174L41.3049 52.8508C41.6433 53.3887 42.4993 53.3271 42.743 52.7428L44.3785 48.8217L48.8213 49.4553C49.4896 49.5507 49.9765 48.8739 49.6322 48.3295L46.0795 42.7138C47.2391 42.2161 48.0882 41.2088 48.3116 39.9779L48.571 38.5556L49.8835 37.826C51.4779 36.9411 52.1945 35.1687 51.6267 33.5161L51.1514 32.1311L51.9632 30.8961C52.932 29.4204 52.6889 27.542 51.3726 26.329L50.2742 25.313L50.3838 23.8696C50.5176 22.1333 49.3678 20.5696 47.5866 20.0665L46.1378 19.6586L45.5293 18.3443C44.903 16.9919 43.4822 16.1179 41.9093 16.1179C41.3651 16.1179 41.1072 16.2003 39.6629 16.4454C38.8811 15.9608 37.9656 14.752 36.0309 14.752C34.2416 14.752 33.2894 15.7956 32.3921 16.4533C30.9402 16.2068 30.7146 16.117 30.1481 16.117C28.5784 16.117 27.1585 16.9907 26.5303 18.3437L25.9231 19.6577L24.4722 20.0659C22.6922 20.5704 21.5427 22.1339 21.6765 23.8669L21.7861 25.3141L20.6889 26.3252C19.3711 27.5406 19.1276 29.421 20.0974 30.899ZM30.1626 50.7637L28.8908 47.7149C28.7545 47.3874 28.3936 47.1925 28.0229 47.2453L24.631 47.7293L27.6231 43.0552L28.945 43.1183L29.8599 44.2447C30.5999 45.1607 31.7752 45.7072 33.0037 45.7072C33.1318 45.7072 33.2584 45.7007 33.3844 45.6895L30.1626 50.7637ZM43.9856 47.2456C43.6147 47.1928 43.2541 47.3877 43.1178 47.7149L41.8495 50.7561L38.6615 45.6881C38.7918 45.7004 38.9234 45.7075 39.0563 45.7075C40.281 45.7075 41.4553 45.1624 42.1994 44.2485L43.1159 43.1168L44.4306 43.0552L47.3885 47.7311L43.9856 47.2456ZM21.814 27.3962L22.9852 26.3173C22.988 26.3147 22.9908 26.312 22.9933 26.3094C23.2759 26.0414 23.4216 25.6743 23.3934 25.3024L23.2762 23.7598C23.197 22.7314 23.8797 21.804 24.9352 21.5049L26.4833 21.0694C26.8699 20.9634 27.1854 20.7025 27.3521 20.3483L28.0019 18.9421C28.3748 18.1389 29.2173 17.62 30.1485 17.62C30.6435 17.62 31.9065 17.9296 32.3551 17.9683C32.3805 17.9707 32.4065 17.9719 32.4316 17.9716C32.972 17.9698 33.2459 17.7514 33.7002 17.3887C34.5972 16.6714 35.1505 16.2546 36.0309 16.2546C37.2604 16.2546 37.7927 17.0594 38.7536 17.6889C39.0644 17.922 39.4633 18.0056 39.7227 17.9619C41.346 17.6901 41.5346 17.6205 41.9093 17.6205C42.8427 17.6205 43.6858 18.1394 44.0577 18.9421L44.7094 20.3503C44.8742 20.6975 45.1888 20.959 45.5748 21.0691L47.1238 21.5055C48.1806 21.8037 48.863 22.7314 48.7834 23.7622L48.6669 25.3001C48.6362 25.6772 48.7831 26.0461 49.0707 26.312L50.2466 27.3991C51.0277 28.1191 51.1715 29.2334 50.5972 30.1083L49.7293 31.4285C49.5185 31.7516 49.4693 32.1434 49.593 32.5009L50.0997 33.976C50.4365 34.9568 50.0113 36.0081 49.0651 36.5335L47.6589 37.315C47.3093 37.5105 47.0712 37.8378 47.0066 38.2078L46.73 39.7252C46.5608 40.6582 45.7872 41.3737 44.799 41.519C44.7692 41.5214 44.7395 41.5258 44.7097 41.5314C44.6536 41.5378 44.5966 41.5428 44.5346 41.5457L42.9329 41.6206C42.5262 41.6385 42.1509 41.8234 41.9015 42.1295L40.9224 43.3387C40.4812 43.8808 39.7835 44.2045 39.0563 44.2045C38.7123 44.2045 38.3805 44.1349 38.0703 43.9973C38.0631 43.994 38.0562 43.9911 38.049 43.9882C36.5332 43.3871 36.4984 43.3029 36.2105 43.3029H35.8495C35.5588 43.3029 35.4854 43.4035 34.0104 43.9905C33.6996 44.1197 33.4144 44.2045 33.0037 44.2045C32.2746 44.2045 31.5778 43.8805 31.1379 43.3363L30.16 42.1324C29.9116 41.8243 29.5322 41.6382 29.1264 41.6223C26.8652 41.5114 27.7243 41.563 27.2713 41.5214C26.2787 41.3805 25.4998 40.6623 25.3291 39.7252L25.054 38.2114C24.9891 37.8433 24.7554 37.5187 24.4123 37.3206C24.4085 37.3183 24.4048 37.3162 24.4007 37.3139L22.993 36.5314C22.048 36.0075 21.6235 34.9562 21.9603 33.9745L22.4647 32.5065C22.591 32.1481 22.5421 31.7557 22.3281 31.4249L21.4631 30.111C20.8878 29.234 21.032 28.1173 21.814 27.3962Z" fill="white"/>
<path d="M36.0285 40.7482C42.2202 40.7482 47.2577 36.0294 47.2577 30.2295C47.2577 24.4295 42.2202 19.7107 36.0285 19.7107C33.8083 19.7107 31.6631 20.3173 29.8255 21.4652C29.4567 21.6953 29.3571 22.1616 29.603 22.5071C29.8487 22.8522 30.3465 22.9456 30.7153 22.7152C32.2885 21.7329 34.126 21.2134 36.0285 21.2134C41.3357 21.2134 45.6535 25.258 45.6535 30.2295C45.6535 35.2009 41.3357 39.2455 36.0285 39.2455C30.7213 39.2455 26.4035 35.2009 26.4035 30.2295C26.4035 28.9645 26.7137 27.7204 27.021 27.0483C27.1955 26.6668 27.0069 26.225 26.5999 26.0616C26.1929 25.8981 25.7211 26.0751 25.5466 26.4563C25.0926 27.4486 24.7993 28.9299 24.7993 30.2295C24.7993 36.0294 29.8365 40.7482 36.0285 40.7482Z" fill="white"/>
<defs>
<linearGradient id="paint0_linear_595_3" x1="14.8867" y1="8.01989" x2="53.5764" y2="61.915" gradientUnits="userSpaceOnUse">
<stop stop-color="#6FD0B7"/>
<stop offset="1" stop-color="#1AC095"/>
</linearGradient>
</defs>
</svg>
