<svg width="72" height="69" viewBox="0 0 72 69" fill="none" xmlns="http://www.w3.org/2000/svg">
<ellipse cx="35.9333" cy="34.4672" rx="35.9333" ry="33.66" fill="url(#paint0_linear_646_2)"/>
<path d="M53.954 26.0542L38.7236 18.2202C38.4583 18.0838 38.1366 18.0838 37.8713 18.2202L32.144 21.1661C32.0147 21.1998 31.894 21.2617 31.7916 21.3473L22.641 26.0542C22.3577 26.2 22.1816 26.4786 22.1816 26.7812V28.4771H14.2322C13.7431 28.4771 13.3467 28.8487 13.3467 29.3066C13.3467 29.7647 13.7431 30.136 14.2322 30.136H22.1816V33.1221H19.3718C18.8827 33.1221 18.4863 33.4938 18.4863 33.9516C18.4863 34.4097 18.8827 34.7811 19.3718 34.7811H22.1816V39.0943H17.0104C16.5213 39.0943 16.1249 39.4659 16.1249 39.9237C16.1249 40.3819 16.5213 40.7532 17.0104 40.7532H22.1816V42.4494C22.1816 42.752 22.3577 43.0307 22.641 43.1765L37.8713 51.0104C38.0042 51.0788 38.1508 51.1128 38.2975 51.1128C38.4441 51.1128 38.5908 51.0788 38.7236 51.0104L53.954 43.1765C54.2373 43.0307 54.4133 42.752 54.4133 42.4494V38.735C54.4133 38.2771 54.0169 37.9055 53.5279 37.9055C53.0388 37.9055 52.6424 38.2771 52.6424 38.735V41.9585L39.183 48.8817V35.106L43.4634 32.9044V36.3985C43.4634 36.6921 43.6287 36.9636 43.8982 37.1126C44.0369 37.1894 44.1929 37.228 44.3489 37.228C44.4955 37.228 44.6425 37.194 44.7757 37.1253L48.0396 35.4427C48.3222 35.2969 48.4979 35.0186 48.4979 34.7159V30.3149L52.6424 28.1832V32.0992C52.6424 32.5574 53.0388 32.9287 53.5279 32.9287C54.0169 32.9287 54.4133 32.5574 54.4133 32.0992V26.7812C54.4133 26.4786 54.2373 26.2 53.954 26.0542ZM37.412 48.8817L23.9526 41.9585V28.1832L37.412 35.106V48.8817ZM38.2975 33.669L24.9069 26.7812L29.1154 24.6165L42.5063 31.5043L38.2975 33.669ZM44.3461 30.5579L30.9552 23.6701L32.4069 22.9236L45.7975 29.8114L44.3461 30.5579ZM46.7269 34.2257L45.2344 34.9952V31.9936L46.7269 31.2257V34.2257ZM47.6373 28.8649L34.2467 21.9771L38.2975 19.8937L51.688 26.7812L47.6373 28.8649Z" fill="white"/>
<path d="M53.5276 34.5879C53.2948 34.5879 53.0662 34.6757 52.9015 34.8309C52.7369 34.9851 52.6421 35.1983 52.6421 35.4174C52.6421 35.6354 52.7369 35.8496 52.9015 36.0038C53.0662 36.158 53.2948 36.2468 53.5276 36.2468C53.7604 36.2468 53.989 36.158 54.1536 36.0038C54.3183 35.8496 54.4131 35.6354 54.4131 35.4174C54.4131 35.1983 54.3183 34.9851 54.1536 34.8309C53.989 34.6757 53.7604 34.5879 53.5276 34.5879Z" fill="white"/>
<path d="M16.7158 33.9515C16.7158 33.7335 16.621 33.5196 16.456 33.3654C16.2914 33.2108 16.0631 33.1221 15.8303 33.1221C15.5972 33.1221 15.3689 33.2108 15.2042 33.3654C15.0386 33.5196 14.9448 33.7335 14.9448 33.9515C14.9448 34.1699 15.0386 34.3838 15.2042 34.538C15.3689 34.6922 15.5972 34.781 15.8303 34.781C16.0631 34.781 16.2914 34.6925 16.456 34.538C16.621 34.3838 16.7158 34.1699 16.7158 33.9515Z" fill="white"/>
<defs>
<linearGradient id="paint0_linear_646_2" x1="14.8867" y1="8.50085" x2="53.5764" y2="62.3959" gradientUnits="userSpaceOnUse">
<stop stop-color="#B69DFA"/>
<stop offset="1" stop-color="#885EFF"/>
</linearGradient>
</defs>
</svg>
